<svg width="61" height="61" viewBox="0 0 61 61" fill="none" xmlns="http://www.w3.org/2000/svg">
<path d="M22.0862 24.1896V17.8792C22.0862 15.556 23.9698 13.6724 26.293 13.6724C28.9413 14.9965 32.0586 14.9965 34.7069 13.6724C37.0301 13.6724 38.9137 15.556 38.9137 17.8792V24.1896C38.9137 25.3517 37.9724 26.293 36.8103 26.293H24.1896C23.0275 26.2932 22.0862 25.3518 22.0862 24.1896Z" fill="#EF2648"/>
<path d="M30.5001 10.5173C33.4043 10.5173 35.7587 8.16289 35.7587 5.25863C35.7587 2.35437 33.4043 0 30.5001 0C27.5958 0 25.2414 2.35437 25.2414 5.25863C25.2414 8.16289 27.5958 10.5173 30.5001 10.5173Z" fill="#FFD4B0"/>
<path d="M6.31051 31.5519C5.72994 31.5519 5.25874 31.0807 5.25874 30.5001C5.24921 20.372 11.2999 11.222 20.6223 7.26439C21.1565 7.03719 21.775 7.28547 22.0022 7.8197C22.2294 8.35393 21.9811 8.97239 21.4469 9.19959C12.9005 12.8269 7.35371 21.2155 7.36217 30.5001C7.36217 31.0807 6.89097 31.5519 6.31051 31.5519Z" fill="#FFDC13"/>
<path d="M54.6897 31.5519C54.1091 31.5519 53.6379 31.0807 53.6379 30.5001C53.6464 21.2155 48.0995 12.8269 39.5532 9.19959C39.019 8.97239 38.7707 8.35405 38.9979 7.8197C39.2251 7.28547 39.8434 7.03719 40.3778 7.26439C49.7003 11.222 55.7509 20.372 55.7415 30.5001C55.7415 31.0807 55.2703 31.5519 54.6897 31.5519Z" fill="#FFDC13"/>
<path d="M30.5001 55.7416C27.1061 55.7479 23.7459 55.0654 20.6223 53.736C20.088 53.5088 19.8397 52.8904 20.0669 52.3561C20.2941 51.8217 20.9125 51.5736 21.4468 51.8008C27.2366 54.2386 33.7636 54.2386 39.5533 51.8008C40.0876 51.5736 40.706 51.8219 40.9332 52.3561C41.1604 52.8903 40.9121 53.5088 40.3779 53.736C37.2543 55.0654 33.894 55.7479 30.5001 55.7416Z" fill="#FFDC13"/>
<path d="M23.1381 57.8448C22.7458 57.8459 22.3861 57.6281 22.2042 57.2801L20.1007 53.2552C19.8315 52.7409 20.0313 52.1046 20.5456 51.8365C20.6066 51.8049 20.6718 51.7786 20.738 51.7587L24.9449 50.525C25.5023 50.362 26.0871 50.6816 26.2501 51.2391C26.413 51.7966 26.0934 52.3813 25.5359 52.5443L22.5585 53.4172L24.0698 56.3063C24.339 56.8217 24.1392 57.4568 23.6249 57.725C23.4747 57.8039 23.3074 57.8448 23.1381 57.8448Z" fill="#FFDC13"/>
<path d="M54.6896 31.5518C54.411 31.5518 54.1428 31.4413 53.9461 31.2437L50.7909 28.0885C50.387 27.6709 50.3985 27.0052 50.8172 26.6014C51.2253 26.208 51.871 26.208 52.2781 26.6014L54.6898 29.013L57.1014 26.6014C57.519 26.1975 58.1846 26.209 58.5885 26.6277C58.9819 27.0357 58.9819 27.6815 58.5885 28.0886L55.4333 31.2438C55.2366 31.4413 54.9684 31.5518 54.6896 31.5518Z" fill="#FFDC13"/>
<path d="M18.9311 13.6725C18.7734 13.6725 18.6187 13.6368 18.4767 13.5673C17.954 13.3159 17.7332 12.6881 17.9846 12.1643L19.6242 8.74201L16.3922 7.26955C15.8737 7.00768 15.6655 6.37564 15.9263 5.85714C16.1734 5.367 16.7572 5.14933 17.2652 5.35758L21.472 7.27908C21.9999 7.52201 22.2304 8.14679 21.9874 8.6747C21.9853 8.67887 21.9833 8.68316 21.9811 8.68733L19.8777 13.0762C19.703 13.4401 19.3349 13.6715 18.9311 13.6725Z" fill="#FFDC13"/>
<path d="M33.6425 1.06445C35.3904 3.36875 34.9392 6.65334 32.636 8.40125C30.765 9.82105 28.1767 9.82105 26.3057 8.40125C28.0337 10.7256 31.3182 11.2094 33.6425 9.48245C35.9668 7.75551 36.4507 4.46997 34.7237 2.14565C34.4177 1.73438 34.0537 1.36945 33.6425 1.06445Z" fill="#EDC4A2"/>
<path d="M52.5863 45.224C55.4905 45.224 57.8449 42.8697 57.8449 39.9654C57.8449 37.0612 55.4905 34.7068 52.5863 34.7068C49.682 34.7068 47.3276 37.0612 47.3276 39.9654C47.3276 42.8697 49.682 45.224 52.5863 45.224Z" fill="#FFD4B0"/>
<path d="M55.7287 35.7712C57.4766 38.0755 57.0255 41.3601 54.7222 43.108C52.8513 44.5278 50.2629 44.5278 48.3919 43.108C50.12 45.4324 53.4044 45.9162 55.7287 44.1892C58.0531 42.4623 58.5369 39.1768 56.8099 36.8524C56.5039 36.4412 56.14 36.0762 55.7287 35.7712Z" fill="#EDC4A2"/>
<path d="M8.41387 45.224C11.3181 45.224 13.6725 42.8697 13.6725 39.9654C13.6725 37.0612 11.3181 34.7068 8.41387 34.7068C5.50961 34.7068 3.15524 37.0612 3.15524 39.9654C3.15524 42.8697 5.50961 45.224 8.41387 45.224Z" fill="#FFD4B0"/>
<path d="M11.5563 35.7712C13.3043 38.0755 12.8531 41.3601 10.5498 43.108C8.67886 44.5278 6.09053 44.5278 4.21954 43.108C5.94756 45.4324 9.23203 45.9162 11.5563 44.1892C13.8807 42.4612 14.3645 39.1768 12.6375 36.8524C12.3314 36.4412 11.9675 36.0762 11.5563 35.7712Z" fill="#EDC4A2"/>
<path d="M22.0862 24.1895C22.0862 25.3516 23.0275 26.293 24.1896 26.293H36.8103C37.9724 26.293 38.9137 25.3516 38.9137 24.1895V17.8791C38.9096 17.1471 38.7129 16.4299 38.3427 15.7988C34.6018 21.0628 28.5438 24.1895 22.0862 24.1895Z" fill="#B20D24"/>
<path d="M0 58.8967V52.5863C0 50.263 1.88361 48.3794 4.20686 48.3794C6.85511 49.7035 9.97243 49.7035 12.6207 48.3794C14.9439 48.3794 16.8275 50.263 16.8275 52.5863V58.8967C16.8275 60.0588 15.8862 61.0001 14.7241 61.0001H2.10343C0.94133 61.0001 0 60.0588 0 58.8967Z" fill="#FFA511"/>
<path d="M0 58.8966C0 60.0587 0.94133 61 2.10343 61H14.7241C15.8862 61 16.8275 60.0587 16.8275 58.8966V52.5862C16.8234 51.8542 16.6267 51.1369 16.2565 50.5059C12.5155 55.7697 6.45754 58.8966 0 58.8966Z" fill="#F08015"/>
<path d="M44.1724 58.8967V52.5863C44.1724 50.263 46.056 48.3794 48.3792 48.3794C51.0275 49.7035 54.1448 49.7035 56.7931 48.3794C59.1163 48.3794 60.9999 50.263 60.9999 52.5863V58.8967C60.9999 60.0588 60.0586 61.0001 58.8965 61.0001H46.2758C45.1136 61.0001 44.1724 60.0588 44.1724 58.8967Z" fill="#4DB5FF"/>
<path d="M44.1724 58.8966C44.1724 60.0587 45.1137 61 46.2758 61H58.8965C60.0586 61 60.9999 60.0587 60.9999 58.8966V52.5862C60.9958 51.8542 60.7991 51.1369 60.4289 50.5059C56.6879 55.7697 50.6299 58.8966 44.1724 58.8966Z" fill="#3596D8"/>
</svg>
