<svg width="71" height="69" viewBox="0 0 71 69" fill="none" xmlns="http://www.w3.org/2000/svg">
<path fill-rule="evenodd" clip-rule="evenodd" d="M37.1596 68.2758C55.7768 68.2758 70.869 53.1836 70.869 34.5665C70.869 15.9493 55.7768 0.857147 37.1596 0.857147C18.5425 0.857147 3.45032 15.9493 3.45032 34.5665C3.45032 40.3277 4.89562 45.7514 7.44343 50.4947C7.43226 56.6079 6.13118 65.6389 0.857178 68.2759C0.857178 69.1274 4.63275 69.3078 19.6236 63.3612C24.7326 66.4792 30.7363 68.2758 37.1596 68.2758ZM37.1596 58.1982C24.1082 58.1982 13.528 47.6179 13.528 34.5665C13.528 21.5151 24.1082 10.9348 37.1596 10.9348C50.2111 10.9348 60.7913 21.5151 60.7913 34.5665C60.7913 47.6179 50.2111 58.1982 37.1596 58.1982Z" fill="#407BFF"/>
</svg>
