<svg width="113" height="17" viewBox="0 0 113 17" fill="none" xmlns="http://www.w3.org/2000/svg">
<path d="M11.4683 4.88574L15.937 5.54199C16.312 5.60449 16.6245 5.85449 16.7495 6.22949C16.8745 6.57324 16.7808 6.97949 16.4995 7.22949L13.2495 10.4482L14.0308 15.0107C14.0933 15.3857 13.937 15.7607 13.6245 15.9795C13.312 16.2295 12.9058 16.2295 12.562 16.0732L8.56201 13.917L4.53076 16.0732C4.21826 16.2295 3.78076 16.2295 3.49951 15.9795C3.18701 15.7607 3.03076 15.3857 3.09326 15.0107L3.84326 10.4482L0.593262 7.22949C0.312012 6.97949 0.218262 6.57324 0.343262 6.22949C0.468262 5.85449 0.780762 5.60449 1.15576 5.54199L5.65576 4.88574L7.65576 0.729492C7.81201 0.385742 8.15576 0.166992 8.56201 0.166992C8.93701 0.166992 9.28076 0.385742 9.43701 0.729492L11.4683 4.88574ZM35.4683 4.88574L39.937 5.54199C40.312 5.60449 40.6245 5.85449 40.7495 6.22949C40.8745 6.57324 40.7808 6.97949 40.4995 7.22949L37.2495 10.4482L38.0308 15.0107C38.0933 15.3857 37.937 15.7607 37.6245 15.9795C37.312 16.2295 36.9058 16.2295 36.562 16.0732L32.562 13.917L28.5308 16.0732C28.2183 16.2295 27.7808 16.2295 27.4995 15.9795C27.187 15.7607 27.0308 15.3857 27.0933 15.0107L27.8433 10.4482L24.5933 7.22949C24.312 6.97949 24.2183 6.57324 24.3433 6.22949C24.4683 5.85449 24.7808 5.60449 25.1558 5.54199L29.6558 4.88574L31.6558 0.729492C31.812 0.385742 32.1558 0.166992 32.562 0.166992C32.937 0.166992 33.2808 0.385742 33.437 0.729492L35.4683 4.88574ZM59.4683 4.88574L63.937 5.54199C64.312 5.60449 64.6245 5.85449 64.7495 6.22949C64.8745 6.57324 64.7808 6.97949 64.4995 7.22949L61.2495 10.4482L62.0308 15.0107C62.0933 15.3857 61.937 15.7607 61.6245 15.9795C61.312 16.2295 60.9058 16.2295 60.562 16.0732L56.562 13.917L52.5308 16.0732C52.2183 16.2295 51.7808 16.2295 51.4995 15.9795C51.187 15.7607 51.0308 15.3857 51.0933 15.0107L51.8433 10.4482L48.5933 7.22949C48.312 6.97949 48.2183 6.57324 48.3433 6.22949C48.4683 5.85449 48.7808 5.60449 49.1558 5.54199L53.6558 4.88574L55.6558 0.729492C55.812 0.385742 56.1558 0.166992 56.562 0.166992C56.937 0.166992 57.2808 0.385742 57.437 0.729492L59.4683 4.88574ZM83.4683 4.88574L87.937 5.54199C88.312 5.60449 88.6245 5.85449 88.7495 6.22949C88.8745 6.57324 88.7808 6.97949 88.4995 7.22949L85.2495 10.4482L86.0308 15.0107C86.0933 15.3857 85.937 15.7607 85.6245 15.9795C85.312 16.2295 84.9058 16.2295 84.562 16.0732L80.562 13.917L76.5308 16.0732C76.2183 16.2295 75.7808 16.2295 75.4995 15.9795C75.187 15.7607 75.0308 15.3857 75.0933 15.0107L75.8433 10.4482L72.5933 7.22949C72.312 6.97949 72.2183 6.57324 72.3433 6.22949C72.4683 5.85449 72.7808 5.60449 73.1558 5.54199L77.6558 4.88574L79.6558 0.729492C79.812 0.385742 80.1558 0.166992 80.562 0.166992C80.937 0.166992 81.2808 0.385742 81.437 0.729492L83.4683 4.88574ZM107.468 4.88574L111.937 5.54199C112.312 5.60449 112.625 5.85449 112.75 6.22949C112.875 6.57324 112.781 6.97949 112.5 7.22949L109.25 10.4482L110.031 15.0107C110.093 15.3857 109.937 15.7607 109.625 15.9795C109.312 16.2295 108.906 16.2295 108.562 16.0732L104.562 13.917L100.531 16.0732C100.218 16.2295 99.7808 16.2295 99.4995 15.9795C99.187 15.7607 99.0308 15.3857 99.0933 15.0107L99.8433 10.4482L96.5933 7.22949C96.312 6.97949 96.2183 6.57324 96.3433 6.22949C96.4683 5.85449 96.7808 5.60449 97.1558 5.54199L101.656 4.88574L103.656 0.729492C103.812 0.385742 104.156 0.166992 104.562 0.166992C104.937 0.166992 105.281 0.385742 105.437 0.729492L107.468 4.88574Z" fill="#FFC500"/>
</svg>
