<svg width="170" height="167" viewBox="0 0 170 167" fill="none" xmlns="http://www.w3.org/2000/svg">
<rect width="169.076" height="166.071" rx="17.8571" fill="#BCE7FF"/>
<path fill-rule="evenodd" clip-rule="evenodd" d="M86.3465 129.746C112.313 129.746 133.362 108.696 133.362 82.7299C133.362 56.7639 112.313 35.7143 86.3465 35.7143C60.3805 35.7143 39.3309 56.7639 39.3309 82.7299C39.3309 90.7654 41.3467 98.33 44.9003 104.946C44.8847 113.472 43.07 126.068 35.7142 129.746C35.7142 130.933 40.9802 131.185 61.8884 122.891C69.0141 127.24 77.3877 129.746 86.3465 129.746ZM86.3465 115.69C68.1432 115.69 53.3866 100.933 53.3866 82.7299C53.3866 64.5266 68.1432 49.7699 86.3465 49.7699C104.55 49.7699 119.307 64.5266 119.307 82.7299C119.307 100.933 104.55 115.69 86.3465 115.69Z" fill="#407BFF"/>
</svg>
